<?xml version="1.0" encoding="UTF-8"?>
<svg width="144px" height="144px" viewBox="0 0 144 144" version="1.1" xmlns="http://www.w3.org/2000/svg" xmlns:xlink="http://www.w3.org/1999/xlink">
    <title>Icon</title>
    <g id="Page-1" stroke="none" stroke-width="1" fill="none" fill-rule="evenodd">
        <g id="Icon">
            <path d="M14.1013686,-5.69712169e-16 L72,0 C111.764502,-7.30462051e-15 144,32.235498 144,72 C144,111.764502 111.764502,144 72,144 L14.1013686,144 C9.19801553,144 7.41994122,143.489459 5.62734863,142.53077 C3.83475604,141.572081 2.42791888,140.165244 1.46922987,138.372651 C0.510540861,136.580059 2.20679451e-16,134.801984 -3.79808113e-16,129.898631 L3.79808113e-16,14.1013686 C-2.20679451e-16,9.19801553 0.510540861,7.41994122 1.46922987,5.62734863 C2.42791888,3.83475604 3.83475604,2.42791888 5.62734863,1.46922987 C7.41994122,0.510540861 9.19801553,3.31019177e-16 14.1013686,-5.69712169e-16 Z" id="Rectangle-Copy" fill="#FF597B"></path>
            <path d="M129.898631,1.5 C134.377189,1.5 136.022303,1.91329056 137.665253,2.79194967 C139.192576,3.60877116 140.391229,4.80742351 141.20805,6.33474692 C142.086709,7.97769661 142.5,9.62281137 142.5,14.1013686 L142.5,129.898631 C142.5,134.377189 142.086709,136.022303 141.20805,137.665253 C140.391229,139.192576 139.192576,140.391229 137.665253,141.20805 C136.022303,142.086709 134.377189,142.5 129.898631,142.5 L73.5,142.5 L73.5,1.5 Z" id="Rectangle-Copy-2" stroke="#FF597B" stroke-width="3" fill="#FFFFFF"></path>
            <g id="P" transform="translate(21.525000, 43.800000)" fill="#FFFFFF" fill-rule="nonzero">
                <path d="M23.607,0 C26.7316667,0 29.5553333,0.774 32.078,2.322 C34.6006667,3.87 36.6001667,5.99133333 38.0765,8.686 C39.5528333,11.3806667 40.291,14.448 40.291,17.888 C40.291,21.2706667 39.5528333,24.338 38.0765,27.09 C36.6001667,29.842 34.6006667,32.0278333 32.078,33.6475 C29.5553333,35.2671667 26.7316667,36.077 23.607,36.077 L6.149,36.077 L6.751,35.002 L6.751,56.717 C6.751,57.6916667 6.4285,58.5158333 5.7835,59.1895 C5.1385,59.8631667 4.32866667,60.2 3.354,60.2 C2.35066667,60.2 1.54083333,59.8631667 0.9245,59.1895 C0.308166667,58.5158333 0,57.6916667 0,56.717 L0,3.483 C0,2.50833333 0.336833333,1.68416667 1.0105,1.0105 C1.68416667,0.336833333 2.50833333,0 3.483,0 L23.607,0 Z M23.607,29.455 C25.4703333,29.455 27.1258333,28.9318333 28.5735,27.8855 C30.0211667,26.8391667 31.175,25.4345 32.035,23.6715 C32.895,21.9085 33.325,19.9806667 33.325,17.888 C33.325,15.738 32.895,13.8245 32.035,12.1475 C31.175,10.4705 30.0211667,9.1375 28.5735,8.1485 C27.1258333,7.1595 25.4703333,6.665 23.607,6.665 L6.106,6.665 L6.751,5.676 L6.751,30.272 L6.106,29.455 L23.607,29.455 Z" id="Shape"></path>
            </g>
            <g id="B" transform="translate(86.450000, 43.800000)" fill="#333333" fill-rule="nonzero">
                <path d="M26.918,0 C32.422,0 36.5213333,1.29 39.216,3.87 C41.9106667,6.45 43.258,10.2626667 43.258,15.308 C43.258,18.0026667 42.5986667,20.3676667 41.28,22.403 C39.9613333,24.4383333 38.012,26.015 35.432,27.133 C32.852,28.251 29.67,28.81 25.886,28.81 L26.23,24.94 C28.0073333,24.94 30.0426667,25.1836667 32.336,25.671 C34.6293333,26.1583333 36.851,27.0183333 39.001,28.251 C41.151,29.4836667 42.9283333,31.2036667 44.333,33.411 C45.7376667,35.6183333 46.44,38.442 46.44,41.882 C46.44,45.666 45.8236667,48.762 44.591,51.17 C43.3583333,53.578 41.7386667,55.4413333 39.732,56.76 C37.7253333,58.0786667 35.5753333,58.9816667 33.282,59.469 C30.9886667,59.9563333 28.7813333,60.2 26.66,60.2 L5.246,60.2 C3.75533333,60.2 2.50833333,59.6983333 1.505,58.695 C0.501666667,57.6916667 0,56.4446667 0,54.954 L0,5.246 C0,3.75533333 0.501666667,2.50833333 1.505,1.505 C2.50833333,0.501666667 3.75533333,0 5.246,0 L26.918,0 Z M25.37,10.148 L10.062,10.148 L11.18,8.772 L11.18,24.338 L10.148,23.564 L25.628,23.564 C27.2906667,23.564 28.7813333,23.0193333 30.1,21.93 C31.4186667,20.8406667 32.078,19.264 32.078,17.2 C32.078,14.7346667 31.4616667,12.943 30.229,11.825 C28.9963333,10.707 27.3766667,10.148 25.37,10.148 Z M26.058,33.712 L10.406,33.712 L11.18,33.024 L11.18,51.17 L10.32,50.31 L26.66,50.31 C29.2973333,50.31 31.39,49.6076667 32.938,48.203 C34.486,46.7983333 35.26,44.6913333 35.26,41.882 C35.26,39.302 34.744,37.4386667 33.712,36.292 C32.68,35.1453333 31.4473333,34.4286667 30.014,34.142 C28.5806667,33.8553333 27.262,33.712 26.058,33.712 Z" id="Shape"></path>
            </g>
        </g>
    </g>
</svg>