<?xml version="1.0" encoding="UTF-8"?>
<svg width="510px" height="144px" viewBox="0 0 510 144" version="1.1" xmlns="http://www.w3.org/2000/svg" xmlns:xlink="http://www.w3.org/1999/xlink">
    <title>Logo</title>
    <g id="Page-1" stroke="none" stroke-width="1" fill="none" fill-rule="evenodd">
        <g id="Logo">
            <path d="M14.1013686,-5.69712169e-16 L215.898631,5.69712169e-16 C220.801984,-3.31019177e-16 222.580059,0.510540861 224.372651,1.46922987 C226.165244,2.42791888 227.572081,3.83475604 228.53077,5.62734863 C229.489459,7.41994122 230,9.19801553 230,14.1013686 L230,129.898631 C230,134.801984 229.489459,136.580059 228.53077,138.372651 C227.572081,140.165244 226.165244,141.572081 224.372651,142.53077 C222.580059,143.489459 220.801984,144 215.898631,144 L14.1013686,144 C9.19801553,144 7.41994122,143.489459 5.62734863,142.53077 C3.83475604,141.572081 2.42791888,140.165244 1.46922987,138.372651 C0.510540861,136.580059 2.20679451e-16,134.801984 -3.79808113e-16,129.898631 L3.79808113e-16,14.1013686 C-2.20679451e-16,9.19801553 0.510540861,7.41994122 1.46922987,5.62734863 C2.42791888,3.83475604 3.83475604,2.42791888 5.62734863,1.46922987 C7.41994122,0.510540861 9.19801553,3.31019177e-16 14.1013686,-5.69712169e-16 Z" id="Rectangle" fill="#FF597B"></path>
            <g id="PON" transform="translate(32.525000, 43.940000)" fill="#FFFFFF" fill-rule="nonzero">
                <path d="M23.607,0.86 C26.7316667,0.86 29.5553333,1.634 32.078,3.182 C34.6006667,4.73 36.6001667,6.85133333 38.0765,9.546 C39.5528333,12.2406667 40.291,15.308 40.291,18.748 C40.291,22.1306667 39.5528333,25.198 38.0765,27.95 C36.6001667,30.702 34.6006667,32.8878333 32.078,34.5075 C29.5553333,36.1271667 26.7316667,36.937 23.607,36.937 L6.149,36.937 L6.751,35.862 L6.751,57.577 C6.751,58.5516667 6.4285,59.3758333 5.7835,60.0495 C5.1385,60.7231667 4.32866667,61.06 3.354,61.06 C2.35066667,61.06 1.54083333,60.7231667 0.9245,60.0495 C0.308166667,59.3758333 2.84217094e-14,58.5516667 2.84217094e-14,57.577 L2.84217094e-14,4.343 C2.84217094e-14,3.36833333 0.336833333,2.54416667 1.0105,1.8705 C1.68416667,1.19683333 2.50833333,0.86 3.483,0.86 L23.607,0.86 Z M23.607,30.315 C25.4703333,30.315 27.1258333,29.7918333 28.5735,28.7455 C30.0211667,27.6991667 31.175,26.2945 32.035,24.5315 C32.895,22.7685 33.325,20.8406667 33.325,18.748 C33.325,16.598 32.895,14.6845 32.035,13.0075 C31.175,11.3305 30.0211667,9.9975 28.5735,9.0085 C27.1258333,8.0195 25.4703333,7.525 23.607,7.525 L6.106,7.525 L6.751,6.536 L6.751,31.132 L6.106,30.315 L23.607,30.315 Z" id="Shape"></path>
                <path d="M105.737,30.96 C105.737,35.4033333 105.0275,39.5026667 103.6085,43.258 C102.1895,47.0133333 100.182833,50.2885 97.5885,53.0835 C94.9941667,55.8785 91.9268333,58.05 88.3865,59.598 C84.8461667,61.146 80.969,61.92 76.755,61.92 C72.541,61.92 68.671,61.146 65.145,59.598 C61.619,58.05 58.5588333,55.8785 55.9645,53.0835 C53.3701667,50.2885 51.3635,47.0133333 49.9445,43.258 C48.5255,39.5026667 47.816,35.4033333 47.816,30.96 C47.816,26.5166667 48.5255,22.4173333 49.9445,18.662 C51.3635,14.9066667 53.3701667,11.6315 55.9645,8.8365 C58.5588333,6.0415 61.619,3.87 65.145,2.322 C68.671,0.774 72.541,0 76.755,0 C80.969,0 84.8461667,0.774 88.3865,2.322 C91.9268333,3.87 94.9941667,6.0415 97.5885,8.8365 C100.182833,11.6315 102.1895,14.9066667 103.6085,18.662 C105.0275,22.4173333 105.737,26.5166667 105.737,30.96 Z M98.341,30.96 C98.341,26.2873333 97.4165,22.1378333 95.5675,18.5115 C93.7185,14.8851667 91.1815,12.04 87.9565,9.976 C84.7315,7.912 80.9976667,6.88 76.755,6.88 C72.541,6.88 68.8143333,7.912 65.575,9.976 C62.3356667,12.04 59.7986667,14.878 57.964,18.49 C56.1293333,22.102 55.212,26.2586667 55.212,30.96 C55.212,35.6326667 56.1293333,39.7821667 57.964,43.4085 C59.7986667,47.0348333 62.3356667,49.88 65.575,51.944 C68.8143333,54.008 72.541,55.04 76.755,55.04 C80.9976667,55.04 84.7315,54.008 87.9565,51.944 C91.1815,49.88 93.7185,47.0348333 95.5675,43.4085 C97.4165,39.7821667 98.341,35.6326667 98.341,30.96 Z" id="Shape"></path>
                <path d="M161.723,0.86 C162.669,0.86 163.428667,1.16816667 164.002,1.7845 C164.575333,2.40083333 164.862,3.16766667 164.862,4.085 L164.862,57.491 C164.862,58.5516667 164.518,59.4116667 163.83,60.071 C163.142,60.7303333 162.310667,61.06 161.336,61.06 C160.848667,61.06 160.347,60.9668333 159.831,60.7805 C159.315,60.5941667 158.913667,60.329 158.627,59.985 L121.776,11.266 L123.496,10.277 L123.496,57.921 C123.496,58.8096667 123.195,59.555 122.593,60.157 C121.991,60.759 121.217,61.06 120.271,61.06 C119.325,61.06 118.565333,60.759 117.992,60.157 C117.418667,59.555 117.132,58.8096667 117.132,57.921 L117.132,4.343 C117.132,3.28233333 117.468833,2.43666667 118.1425,1.806 C118.816167,1.17533333 119.611667,0.86 120.529,0.86 C121.045,0.86 121.575333,0.960333333 122.12,1.161 C122.664667,1.36166667 123.080333,1.677 123.367,2.107 L159.616,50.095 L158.541,51.471 L158.541,4.085 C158.541,3.16766667 158.842,2.40083333 159.444,1.7845 C160.046,1.16816667 160.805667,0.86 161.723,0.86 Z" id="Path"></path>
            </g>
            <g id="BOOK" transform="translate(237.500000, 39.000000)" fill="#000000" fill-rule="nonzero">
                <path d="M31.3,1 C37.7,1 42.4666667,2.5 45.6,5.5 C48.7333333,8.5 50.3,12.9333333 50.3,18.8 C50.3,21.9333333 49.5333333,24.6833333 48,27.05 C46.4666667,29.4166667 44.2,31.25 41.2,32.55 C38.2,33.85 34.5,34.5 30.1,34.5 L30.5,30 C32.5666667,30 34.9333333,30.2833333 37.6,30.85 C40.2666667,31.4166667 42.85,32.4166667 45.35,33.85 C47.85,35.2833333 49.9166667,37.2833333 51.55,39.85 C53.1833333,42.4166667 54,45.7 54,49.7 C54,54.1 53.2833333,57.7 51.85,60.5 C50.4166667,63.3 48.5333333,65.4666667 46.2,67 C43.8666667,68.5333333 41.3666667,69.5833333 38.7,70.15 C36.0333333,70.7166667 33.4666667,71 31,71 L6.1,71 C4.36666667,71 2.91666667,70.4166667 1.75,69.25 C0.583333333,68.0833333 0,66.6333333 0,64.9 L0,7.1 C0,5.36666667 0.583333333,3.91666667 1.75,2.75 C2.91666667,1.58333333 4.36666667,1 6.1,1 L31.3,1 Z M29.5,12.8 L11.7,12.8 L13,11.2 L13,29.3 L11.8,28.4 L29.8,28.4 C31.7333333,28.4 33.4666667,27.7666667 35,26.5 C36.5333333,25.2333333 37.3,23.4 37.3,21 C37.3,18.1333333 36.5833333,16.05 35.15,14.75 C33.7166667,13.45 31.8333333,12.8 29.5,12.8 Z M30.3,40.2 L12.1,40.2 L13,39.4 L13,60.5 L12,59.5 L31,59.5 C34.0666667,59.5 36.5,58.6833333 38.3,57.05 C40.1,55.4166667 41,52.9666667 41,49.7 C41,46.7 40.4,44.5333333 39.2,43.2 C38,41.8666667 36.5666667,41.0333333 34.9,40.7 C33.2333333,40.3666667 31.7,40.2 30.3,40.2 Z" id="Shape"></path>
                <path d="M129.9,36 C129.9,41 129.066667,45.6666667 127.4,50 C125.733333,54.3333333 123.383333,58.15 120.35,61.45 C117.316667,64.75 113.716667,67.3333333 109.55,69.2 C105.383333,71.0666667 100.833333,72 95.9,72 C90.9666667,72 86.4333333,71.0666667 82.3,69.2 C78.1666667,67.3333333 74.5833333,64.75 71.55,61.45 C68.5166667,58.15 66.1666667,54.3333333 64.5,50 C62.8333333,45.6666667 62,41 62,36 C62,31 62.8333333,26.3333333 64.5,22 C66.1666667,17.6666667 68.5166667,13.85 71.55,10.55 C74.5833333,7.25 78.1666667,4.66666667 82.3,2.8 C86.4333333,0.933333333 90.9666667,0 95.9,0 C100.833333,0 105.383333,0.933333333 109.55,2.8 C113.716667,4.66666667 117.316667,7.25 120.35,10.55 C123.383333,13.85 125.733333,17.6666667 127.4,22 C129.066667,26.3333333 129.9,31 129.9,36 Z M116.9,36 C116.9,31.5333333 116,27.4833333 114.2,23.85 C112.4,20.2166667 109.933333,17.3333333 106.8,15.2 C103.666667,13.0666667 100.033333,12 95.9,12 C91.7666667,12 88.1333333,13.0666667 85,15.2 C81.8666667,17.3333333 79.4166667,20.2 77.65,23.8 C75.8833333,27.4 75,31.4666667 75,36 C75,40.4666667 75.8833333,44.5166667 77.65,48.15 C79.4166667,51.7833333 81.8666667,54.6666667 85,56.8 C88.1333333,58.9333333 91.7666667,60 95.9,60 C100.033333,60 103.666667,58.9333333 106.8,56.8 C109.933333,54.6666667 112.4,51.7833333 114.2,48.15 C116,44.5166667 116.9,40.4666667 116.9,36 Z" id="Shape"></path>
                <path d="M205.8,36 C205.8,41 204.966667,45.6666667 203.3,50 C201.633333,54.3333333 199.283333,58.15 196.25,61.45 C193.216667,64.75 189.616667,67.3333333 185.45,69.2 C181.283333,71.0666667 176.733333,72 171.8,72 C166.866667,72 162.333333,71.0666667 158.2,69.2 C154.066667,67.3333333 150.483333,64.75 147.45,61.45 C144.416667,58.15 142.066667,54.3333333 140.4,50 C138.733333,45.6666667 137.9,41 137.9,36 C137.9,31 138.733333,26.3333333 140.4,22 C142.066667,17.6666667 144.416667,13.85 147.45,10.55 C150.483333,7.25 154.066667,4.66666667 158.2,2.8 C162.333333,0.933333333 166.866667,0 171.8,0 C176.733333,0 181.283333,0.933333333 185.45,2.8 C189.616667,4.66666667 193.216667,7.25 196.25,10.55 C199.283333,13.85 201.633333,17.6666667 203.3,22 C204.966667,26.3333333 205.8,31 205.8,36 Z M192.8,36 C192.8,31.5333333 191.9,27.4833333 190.1,23.85 C188.3,20.2166667 185.833333,17.3333333 182.7,15.2 C179.566667,13.0666667 175.933333,12 171.8,12 C167.666667,12 164.033333,13.0666667 160.9,15.2 C157.766667,17.3333333 155.316667,20.2 153.55,23.8 C151.783333,27.4 150.9,31.4666667 150.9,36 C150.9,40.4666667 151.783333,44.5166667 153.55,48.15 C155.316667,51.7833333 157.766667,54.6666667 160.9,56.8 C164.033333,58.9333333 167.666667,60 171.8,60 C175.933333,60 179.566667,58.9333333 182.7,56.8 C185.833333,54.6666667 188.3,51.7833333 190.1,48.15 C191.9,44.5166667 192.8,40.4666667 192.8,36 Z" id="Shape"></path>
                <path d="M265.5,71 C263.633333,71 262.133333,70.2333333 261,68.7 L237.9,38.3 L247,29 L270.9,60.6 C271.833333,61.8666667 272.3,63.2333333 272.3,64.7 C272.3,66.5666667 271.6,68.0833333 270.2,69.25 C268.8,70.4166667 267.233333,71 265.5,71 Z M266.7,0.5 C268.3,0.5 269.616667,1.15 270.65,2.45 C271.683333,3.75 272.2,5.06666667 272.2,6.4 C272.2,7.8 271.6,9.1 270.4,10.3 L228.5,50.4 L228,36.1 L261.8,2.8 C263.333333,1.26666667 264.966667,0.5 266.7,0.5 Z M223.5,71 C221.633333,71 220.133333,70.4166667 219,69.25 C217.866667,68.0833333 217.3,66.6333333 217.3,64.9 L217.3,7.1 C217.3,5.36666667 217.9,3.91666667 219.1,2.75 C220.3,1.58333333 221.833333,1 223.7,1 C225.566667,1 227.05,1.58333333 228.15,2.75 C229.25,3.91666667 229.8,5.36666667 229.8,7.1 L229.8,64.9 C229.8,66.6333333 229.233333,68.0833333 228.1,69.25 C226.966667,70.4166667 225.433333,71 223.5,71 Z" id="Shape"></path>
            </g>
        </g>
    </g>
</svg>