<?xml version="1.0" encoding="UTF-8"?>
<svg width="144px" height="144px" viewBox="0 0 144 144" version="1.1" xmlns="http://www.w3.org/2000/svg" xmlns:xlink="http://www.w3.org/1999/xlink">
    <title>Icon</title>
    <g id="Page-1" stroke="none" stroke-width="1" fill="none" fill-rule="evenodd">
        <g id="Icon">
            <path d="M14.1013686,-5.69712169e-16 L72,0 C111.764502,-7.30462051e-15 144,32.235498 144,72 C144,111.764502 111.764502,144 72,144 L14.1013686,144 C9.19801553,144 7.41994122,143.489459 5.62734863,142.53077 C3.83475604,141.572081 2.42791888,140.165244 1.46922987,138.372651 C0.510540861,136.580059 2.20679451e-16,134.801984 -3.79808113e-16,129.898631 L3.79808113e-16,14.1013686 C-2.20679451e-16,9.19801553 0.510540861,7.41994122 1.46922987,5.62734863 C2.42791888,3.83475604 3.83475604,2.42791888 5.62734863,1.46922987 C7.41994122,0.510540861 9.19801553,3.31019177e-16 14.1013686,-5.69712169e-16 Z" id="Rectangle-Copy" fill="#FF597B"></path>
            <path d="M129.898631,1.5 C134.377189,1.5 136.022303,1.91329056 137.665253,2.79194967 C139.192576,3.60877116 140.391229,4.80742351 141.20805,6.33474692 C142.086709,7.97769661 142.5,9.62281137 142.5,14.1013686 L142.5,129.898631 C142.5,134.377189 142.086709,136.022303 141.20805,137.665253 C140.391229,139.192576 139.192576,140.391229 137.665253,141.20805 C136.022303,142.086709 134.377189,142.5 129.898631,142.5 L73.5,142.5 L73.5,1.5 Z" id="Rectangle-Copy-2" stroke="#FF597B" stroke-width="3" fill="#FFFFFF"></path>
            <text id="P" font-family="Quicksand-Medium, Quicksand" font-size="86" font-weight="400" fill="#FFFFFF">
                <tspan x="14" y="104">P</tspan>
            </text>
            <text id="B" font-family="Quicksand-Bold, Quicksand" font-size="86" font-weight="bold" fill="#333333">
                <tspan x="80" y="104">B</tspan>
            </text>
        </g>
    </g>
</svg>