<?xml version="1.0" encoding="UTF-8"?>
<svg width="517px" height="144px" viewBox="0 0 517 144" version="1.1" xmlns="http://www.w3.org/2000/svg" xmlns:xlink="http://www.w3.org/1999/xlink" style="background: #FFFFFF;">
    <title>Untitled 2</title>
    <g id="Page-1" stroke="none" stroke-width="1" fill="none" fill-rule="evenodd">
        <path d="M14.1013686,-5.69712169e-16 L215.898631,5.69712169e-16 C220.801984,-3.31019177e-16 222.580059,0.510540861 224.372651,1.46922987 C226.165244,2.42791888 227.572081,3.83475604 228.53077,5.62734863 C229.489459,7.41994122 230,9.19801553 230,14.1013686 L230,129.898631 C230,134.801984 229.489459,136.580059 228.53077,138.372651 C227.572081,140.165244 226.165244,141.572081 224.372651,142.53077 C222.580059,143.489459 220.801984,144 215.898631,144 L14.1013686,144 C9.19801553,144 7.41994122,143.489459 5.62734863,142.53077 C3.83475604,141.572081 2.42791888,140.165244 1.46922987,138.372651 C0.510540861,136.580059 2.20679451e-16,134.801984 -3.79808113e-16,129.898631 L3.79808113e-16,14.1013686 C-2.20679451e-16,9.19801553 0.510540861,7.41994122 1.46922987,5.62734863 C2.42791888,3.83475604 3.83475604,2.42791888 5.62734863,1.46922987 C7.41994122,0.510540861 9.19801553,3.31019177e-16 14.1013686,-5.69712169e-16 Z" id="Rectangle" fill="#FF597B"></path>
        <text id="PON" font-family="Quicksand-Medium, Quicksand" font-size="86" font-weight="400" fill="#FFFFFF">
            <tspan x="25" y="105">PON</tspan>
        </text>
        <text id="BOOK" font-family="Quicksand-Bold, Quicksand" font-size="100" font-weight="bold" fill="#000000">
            <tspan x="230" y="110">BOOK</tspan>
        </text>
    </g>
</svg>